<svg xmlns="http://www.w3.org/2000/svg" viewBox="0 0 100 100">
  <defs>
    <linearGradient id="headGrad" x1="0" y1="0" x2="1" y2="0">
      <stop offset="0%" stop-color="#8eaab8"/>
      <stop offset="30%" stop-color="#a8c0cc"/>
      <stop offset="70%" stop-color="#9cb4c0"/>
      <stop offset="100%" stop-color="#7a9aaa"/>
    </linearGradient>
  </defs>

  <!-- Antenna line -->
  <line x1="50" y1="2" x2="50" y2="18" stroke="#556" stroke-width="2.5" stroke-linecap="round"/>
  <!-- Antenna ball -->
  <circle cx="50" cy="2" r="2.8" fill="#7a8a90"/>

  <!-- Head - wide cylindrical/bucket shape -->
  <!-- Bender's head is wider than tall, like a rounded bucket -->
  <path d="
    M 20,28
    Q 20,18 32,18
    L 68,18
    Q 80,18 80,28
    L 80,68
    Q 80,78 68,78
    L 32,78
    Q 20,78 20,68
    Z
  " fill="url(#headGrad)" stroke="#6a8a96" stroke-width="1.8"/>

  <!-- Subtle head shine -->
  <path d="M 30,20 Q 50,17 70,20 L 70,26 Q 50,23 30,26 Z" fill="rgba(255,255,255,0.1)"/>

  <!-- Visor band - darker horizontal stripe across the face -->
  <rect x="24" y="32" width="52" height="20" rx="10" ry="10" fill="#b0b8bc" stroke="#7a8a90" stroke-width="1.5"/>

  <!-- Left eye tube -->
  <circle cx="38" cy="42" r="9" fill="white" stroke="#3a3a3a" stroke-width="2.2"/>
  <!-- Left pupil -->
  <circle cx="39.5" cy="41" r="3.5" fill="#111"/>

  <!-- Right eye tube -->
  <circle cx="62" cy="42" r="9" fill="white" stroke="#3a3a3a" stroke-width="2.2"/>
  <!-- Right pupil -->
  <circle cx="63.5" cy="41" r="3.5" fill="#111"/>

  <!-- Mouth - wide rectangle, Bender's signature grin -->
  <rect x="26" y="58" width="48" height="16" rx="2" ry="2" fill="#c8cfd4" stroke="#6a8a96" stroke-width="1.5"/>

  <!-- Teeth - vertical lines -->
  <line x1="32" y1="58" x2="32" y2="74" stroke="#8a9aa0" stroke-width="1.2"/>
  <line x1="38" y1="58" x2="38" y2="74" stroke="#8a9aa0" stroke-width="1.2"/>
  <line x1="44" y1="58" x2="44" y2="74" stroke="#8a9aa0" stroke-width="1.2"/>
  <line x1="50" y1="58" x2="50" y2="74" stroke="#8a9aa0" stroke-width="1.2"/>
  <line x1="56" y1="58" x2="56" y2="74" stroke="#8a9aa0" stroke-width="1.2"/>
  <line x1="62" y1="58" x2="62" y2="74" stroke="#8a9aa0" stroke-width="1.2"/>
  <line x1="68" y1="58" x2="68" y2="74" stroke="#8a9aa0" stroke-width="1.2"/>

  <!-- Horizontal mid-teeth line -->
  <line x1="26" y1="66" x2="74" y2="66" stroke="#8a9aa0" stroke-width="0.8"/>

  <!-- Overbite curve below mouth -->
  <path d="M28,74 Q50,80 72,74" fill="none" stroke="#6a8a96" stroke-width="1.5"/>

  <!-- Neck -->
  <rect x="38" y="78" width="24" height="6" fill="#7a9aaa" stroke="#6a8a96" stroke-width="1"/>

  <!-- Shoulder hint at bottom -->
  <path d="M30,84 Q50,82 70,84 L74,92 Q50,88 26,92 Z" fill="#8eaab8" stroke="#6a8a96" stroke-width="1.2"/>
</svg>
